<svg width="58" height="59" viewBox="0 0 58 59" fill="none" xmlns="http://www.w3.org/2000/svg">
<rect x="0.119999" y="0.5" width="57.8801" height="57.8801" rx="14.9482" transform="rotate(0.118781 0.119999 0.5)" fill="white"/>
<g filter="url(#filter0_b_1_79)">
<path d="M19.8341 16.0331L12.3653 20.301C11.892 20.5714 11.598 21.0875 11.609 21.6325C12.015 41.7335 26.0769 47.0161 28.5174 47.7823C28.7572 47.8576 28.996 47.8576 29.2358 47.7823C31.6763 47.0161 45.7381 41.7335 46.1442 21.6325C46.1552 21.0875 45.8611 20.5714 45.3879 20.301L37.9191 16.0331C32.3159 12.8313 25.4373 12.8313 19.8341 16.0331Z" fill="#9B8AFF"/>
<path d="M12.4027 20.3665L19.8715 16.0987C25.4515 12.9101 32.3017 12.9101 37.8816 16.0987L45.3504 20.3665C45.7998 20.6233 46.0792 21.1138 46.0687 21.6309C45.8661 31.6619 42.257 37.9895 38.3991 41.9049C34.5395 45.8221 30.4266 47.3293 29.2132 47.7103C28.9881 47.7809 28.7651 47.7809 28.54 47.7103C27.3266 47.3293 23.2136 45.8221 19.3541 41.9049C15.4962 37.9895 11.8871 31.6619 11.6845 21.6309C11.674 21.1138 11.9534 20.6233 12.4027 20.3665Z" stroke="url(#paint0_linear_1_79)" stroke-width="0.151021"/>
</g>
<g filter="url(#filter1_b_1_79)">
<circle cx="29.1234" cy="18.517" r="10.1191" fill="#BFB5FF" fill-opacity="0.6"/>
<circle cx="29.1234" cy="18.517" r="10.0227" stroke="url(#paint1_linear_1_79)" stroke-width="0.192934"/>
</g>
<g filter="url(#filter2_b_1_79)">
<path d="M12.3404 41.7523C12.3404 43.4278 12.3404 44.2656 12.4928 44.9597C13.0409 47.4573 14.9916 49.408 17.4892 49.9562C18.1834 50.1085 19.0211 50.1085 20.6967 50.1085L37.3033 50.1085C38.9789 50.1085 39.8166 50.1085 40.5108 49.9562C43.0084 49.4081 44.9591 47.4573 45.5072 44.9597C45.6596 44.2656 45.6596 43.4278 45.6596 41.7523V41.7523C45.6596 39.5182 45.6596 38.4012 45.4565 37.4757C44.7256 34.1455 42.1247 31.5446 38.7945 30.8137C37.869 30.6106 36.7509 30.6106 34.5149 30.6106C30.5848 30.6106 27.4152 30.6106 23.4851 30.6106C21.2491 30.6106 20.131 30.6106 19.2055 30.8137C15.8753 31.5446 13.2744 34.1455 12.5435 37.4757C12.3404 38.4012 12.3404 39.5182 12.3404 41.7523V41.7523Z" fill="#BFB5FF" fill-opacity="0.6"/>
<path d="M20.6967 50.012L37.3033 50.012C38.984 50.012 39.8087 50.0115 40.4901 49.8619C42.9509 49.3219 44.873 47.3999 45.413 44.939C45.5625 44.2577 45.5631 43.4329 45.5631 41.7523C45.5631 39.5131 45.5625 38.4091 45.3622 37.4964C44.6395 34.203 42.0672 31.6307 38.7738 30.908C37.8611 30.7077 36.7561 30.7071 34.5149 30.7071L34.4919 30.7071L34.4689 30.7071L34.4459 30.7071L34.4229 30.7071L34.4 30.7071L34.377 30.7071L34.3541 30.7071L34.3312 30.7071L34.3083 30.7071L34.2855 30.7071L34.2626 30.7071L34.2398 30.7071L34.217 30.7071L34.1942 30.7071L34.1714 30.7071L34.1486 30.7071L34.1259 30.7071L34.1031 30.7071L34.0804 30.7071L34.0577 30.7071L34.035 30.7071L34.0124 30.7071L33.9897 30.7071L33.9671 30.7071L33.9444 30.7071L33.9218 30.7071L33.8992 30.7071L33.8767 30.7071L33.8541 30.7071L33.8316 30.7071L33.809 30.7071L33.7865 30.7071L33.764 30.7071L33.7415 30.7071L33.7191 30.7071L33.6966 30.7071L33.6742 30.7071L33.6518 30.7071L33.6294 30.7071L33.607 30.7071L33.5846 30.7071L33.5622 30.7071L33.5399 30.7071L33.5175 30.7071L33.4952 30.7071L33.4729 30.7071L33.4506 30.7071L33.4283 30.7071L33.4061 30.7071L33.3838 30.7071L33.3616 30.7071L33.3394 30.7071L33.3172 30.7071L33.295 30.7071L33.2728 30.7071L33.2506 30.7071L33.2285 30.7071L33.2063 30.7071L33.1842 30.7071L33.1621 30.7071L33.14 30.7071L33.1179 30.7071L33.0958 30.7071L33.0738 30.7071L33.0517 30.7071L33.0297 30.7071L33.0077 30.7071L32.9857 30.7071L32.9637 30.7071L32.9417 30.7071L32.9197 30.7071L32.8978 30.7071L32.8758 30.7071L32.8539 30.7071L32.832 30.7071L32.81 30.7071L32.7882 30.7071L32.7663 30.7071L32.7444 30.7071L32.7225 30.7071L32.7007 30.7071L32.6789 30.7071L32.657 30.7071L32.6352 30.7071L32.6134 30.7071L32.5916 30.7071L32.5699 30.7071L32.5481 30.7071L32.5263 30.7071L32.5046 30.7071L32.4829 30.7071L32.4611 30.7071L32.4394 30.7071L32.4177 30.7071L32.3961 30.7071L32.3744 30.7071L32.3527 30.7071L32.3311 30.7071L32.3094 30.7071L32.2878 30.7071L32.2662 30.7071L32.2446 30.7071L32.2229 30.7071L32.2014 30.7071L32.1798 30.7071L32.1582 30.7071L32.1366 30.7071L32.1151 30.7071L32.0936 30.7071L32.072 30.7071L32.0505 30.7071L32.029 30.7071L32.0075 30.7071L31.986 30.7071L31.9645 30.7071L31.9431 30.7071L31.9216 30.7071L31.9001 30.7071L31.8787 30.7071L31.8573 30.7071L31.8358 30.7071L31.8144 30.7071L31.793 30.7071L31.7716 30.7071L31.7502 30.7071L31.7289 30.7071L31.7075 30.7071L31.6861 30.7071L31.6648 30.7071L31.6434 30.7071L31.6221 30.7071L31.6008 30.7071L31.5795 30.7071L31.5581 30.7071L31.5368 30.7071L31.5156 30.7071L31.4943 30.7071L31.473 30.7071L31.4517 30.7071L31.4305 30.7071L31.4092 30.7071L31.388 30.7071L31.3667 30.7071L31.3455 30.7071L31.3243 30.7071L31.3031 30.7071L31.2818 30.7071L31.2606 30.7071L31.2395 30.7071L31.2183 30.7071L31.1971 30.7071L31.1759 30.7071L31.1548 30.7071L31.1336 30.7071L31.1124 30.7071L31.0913 30.7071L31.0702 30.7071L31.049 30.7071L31.0279 30.7071L31.0068 30.7071L30.9857 30.7071L30.9646 30.7071L30.9435 30.7071L30.9224 30.7071L30.9013 30.7071L30.8802 30.7071L30.8592 30.7071L30.8381 30.7071L30.817 30.7071L30.796 30.7071L30.7749 30.7071L30.7539 30.7071L30.7329 30.7071L30.7118 30.7071L30.6908 30.7071L30.6698 30.7071L30.6488 30.7071L30.6278 30.7071L30.6068 30.7071L30.5858 30.7071L30.5648 30.7071L30.5438 30.7071L30.5228 30.7071L30.5018 30.7071L30.4808 30.7071L30.4599 30.7071L30.4389 30.7071L30.4179 30.7071L30.397 30.7071L30.376 30.7071L30.3551 30.7071L30.3342 30.7071L30.3132 30.7071L30.2923 30.7071L30.2714 30.7071L30.2504 30.7071L30.2295 30.7071L30.2086 30.7071L30.1877 30.7071L30.1668 30.7071L30.1459 30.7071L30.125 30.7071L30.1041 30.7071L30.0832 30.7071L30.0623 30.7071L30.0414 30.7071L30.0205 30.7071L29.9996 30.7071L29.9788 30.7071L29.9579 30.7071L29.937 30.7071L29.9162 30.7071L29.8953 30.7071L29.8744 30.7071L29.8536 30.7071L29.8327 30.7071L29.8119 30.7071L29.791 30.7071L29.7702 30.7071L29.7493 30.7071L29.7285 30.7071L29.7076 30.7071L29.6868 30.7071L29.666 30.7071L29.6451 30.7071L29.6243 30.7071L29.6035 30.7071L29.5826 30.7071L29.5618 30.7071L29.541 30.7071L29.5202 30.7071L29.4993 30.7071L29.4785 30.7071L29.4577 30.7071L29.4369 30.7071L29.4161 30.7071L29.3953 30.7071L29.3745 30.7071L29.3536 30.7071L29.3328 30.7071L29.312 30.7071L29.2912 30.7071L29.2704 30.7071L29.2496 30.7071L29.2288 30.7071L29.208 30.7071L29.1872 30.7071L29.1664 30.7071L29.1456 30.7071L29.1248 30.7071L29.104 30.7071L29.0832 30.7071L29.0624 30.7071L29.0416 30.7071L29.0208 30.7071L29 30.7071L28.9792 30.7071L28.9584 30.7071L28.9376 30.7071L28.9168 30.7071L28.896 30.7071L28.8752 30.7071L28.8544 30.7071L28.8336 30.7071L28.8128 30.7071L28.792 30.7071L28.7712 30.7071L28.7504 30.7071L28.7296 30.7071L28.7088 30.7071L28.688 30.7071L28.6672 30.7071L28.6463 30.7071L28.6255 30.7071L28.6047 30.7071L28.5839 30.7071L28.5631 30.7071L28.5423 30.7071L28.5215 30.7071L28.5006 30.7071L28.4798 30.7071L28.459 30.7071L28.4382 30.7071L28.4174 30.7071L28.3965 30.7071L28.3757 30.7071L28.3549 30.7071L28.334 30.7071L28.3132 30.7071L28.2924 30.7071L28.2715 30.7071L28.2507 30.7071L28.2298 30.7071L28.209 30.7071L28.1881 30.7071L28.1673 30.7071L28.1464 30.7071L28.1256 30.7071L28.1047 30.7071L28.0838 30.7071L28.063 30.7071L28.0421 30.7071L28.0212 30.7071L28.0004 30.7071L27.9795 30.7071L27.9586 30.7071L27.9377 30.7071L27.9168 30.7071L27.8959 30.7071L27.875 30.7071L27.8541 30.7071L27.8332 30.7071L27.8123 30.7071L27.7914 30.7071L27.7705 30.7071L27.7496 30.7071L27.7286 30.7071L27.7077 30.7071L27.6868 30.7071L27.6658 30.7071L27.6449 30.7071L27.624 30.7071L27.603 30.7071L27.5821 30.7071L27.5611 30.7071L27.5401 30.7071L27.5192 30.7071L27.4982 30.7071L27.4772 30.7071L27.4562 30.7071L27.4352 30.7071L27.4142 30.7071L27.3932 30.7071L27.3722 30.7071L27.3512 30.7071L27.3302 30.7071L27.3092 30.7071L27.2882 30.7071L27.2671 30.7071L27.2461 30.7071L27.2251 30.7071L27.204 30.7071L27.183 30.7071L27.1619 30.7071L27.1408 30.7071L27.1198 30.7071L27.0987 30.7071L27.0776 30.7071L27.0565 30.7071L27.0354 30.7071L27.0143 30.7071L26.9932 30.7071L26.9721 30.7071L26.951 30.7071L26.9298 30.7071L26.9087 30.7071L26.8875 30.7071L26.8664 30.7071L26.8452 30.7071L26.8241 30.7071L26.8029 30.7071L26.7817 30.7071L26.7605 30.7071L26.7394 30.7071L26.7182 30.7071L26.6969 30.7071L26.6757 30.7071L26.6545 30.7071L26.6333 30.7071L26.612 30.7071L26.5908 30.7071L26.5695 30.7071L26.5483 30.7071L26.527 30.7071L26.5057 30.7071L26.4844 30.7071L26.4632 30.7071L26.4419 30.7071L26.4205 30.7071L26.3992 30.7071L26.3779 30.7071L26.3566 30.7071L26.3352 30.7071L26.3139 30.7071L26.2925 30.7071L26.2711 30.7071L26.2498 30.7071L26.2284 30.7071L26.207 30.7071L26.1856 30.7071L26.1642 30.7071L26.1427 30.7071L26.1213 30.7071L26.0999 30.7071L26.0784 30.7071L26.0569 30.7071L26.0355 30.7071L26.014 30.7071L25.9925 30.7071L25.971 30.7071L25.9495 30.7071L25.928 30.7071L25.9064 30.7071L25.8849 30.7071L25.8633 30.7071L25.8418 30.7071L25.8202 30.7071L25.7986 30.7071L25.777 30.7071L25.7554 30.7071L25.7338 30.7071L25.7122 30.7071L25.6906 30.7071L25.6689 30.7071L25.6473 30.7071L25.6256 30.7071L25.6039 30.7071L25.5823 30.7071L25.5606 30.7071L25.5389 30.7071L25.5171 30.7071L25.4954 30.7071L25.4737 30.7071L25.4519 30.7071L25.4301 30.7071L25.4084 30.7071L25.3866 30.7071L25.3648 30.7071L25.343 30.7071L25.3211 30.7071L25.2993 30.7071L25.2775 30.7071L25.2556 30.7071L25.2337 30.7071L25.2118 30.7071L25.19 30.7071L25.168 30.7071L25.1461 30.7071L25.1242 30.7071L25.1022 30.7071L25.0803 30.7071L25.0583 30.7071L25.0363 30.7071L25.0143 30.7071L24.9923 30.7071L24.9703 30.7071L24.9483 30.7071L24.9262 30.7071L24.9042 30.7071L24.8821 30.7071L24.86 30.7071L24.8379 30.7071L24.8158 30.7071L24.7937 30.7071L24.7715 30.7071L24.7494 30.7071L24.7272 30.7071L24.705 30.7071L24.6828 30.7071L24.6606 30.7071L24.6384 30.7071L24.6162 30.7071L24.5939 30.7071L24.5717 30.7071L24.5494 30.7071L24.5271 30.7071L24.5048 30.7071L24.4825 30.7071L24.4601 30.7071L24.4378 30.7071L24.4154 30.7071L24.393 30.7071L24.3706 30.7071L24.3482 30.7071L24.3258 30.7071L24.3034 30.7071L24.2809 30.7071L24.2585 30.7071L24.236 30.7071L24.2135 30.7071L24.191 30.7071L24.1684 30.7071L24.1459 30.7071L24.1233 30.7071L24.1008 30.7071L24.0782 30.7071L24.0556 30.7071L24.0329 30.7071L24.0103 30.7071L23.9876 30.7071L23.965 30.7071L23.9423 30.7071L23.9196 30.7071L23.8969 30.7071L23.8741 30.7071L23.8514 30.7071L23.8286 30.7071L23.8058 30.7071L23.783 30.7071L23.7602 30.7071L23.7374 30.7071L23.7145 30.7071L23.6917 30.7071L23.6688 30.7071L23.6459 30.7071L23.623 30.7071L23.6 30.7071L23.5771 30.7071L23.5541 30.7071L23.5311 30.7071L23.5081 30.7071L23.4851 30.7071C21.2439 30.7071 20.1389 30.7077 19.2262 30.908C15.9328 31.6307 13.3605 34.203 12.6378 37.4964C12.4375 38.4091 12.4369 39.5131 12.4369 41.7523C12.4369 43.4329 12.4375 44.2577 12.587 44.939C13.127 47.3999 15.049 49.3219 17.5099 49.8619C18.1912 50.0115 19.016 50.012 20.6967 50.012Z" stroke="url(#paint2_linear_1_79)" stroke-width="0.192934"/>
</g>
<defs>
<filter id="filter0_b_1_79" x="8.57104" y="10.5941" width="40.6111" height="40.2823" filterUnits="userSpaceOnUse" color-interpolation-filters="sRGB">
<feFlood flood-opacity="0" result="BackgroundImageFix"/>
<feGaussianBlur in="BackgroundImageFix" stdDeviation="1.51881"/>
<feComposite in2="SourceAlpha" operator="in" result="effect1_backgroundBlur_1_79"/>
<feBlend mode="normal" in="SourceGraphic" in2="effect1_backgroundBlur_1_79" result="shape"/>
</filter>
<filter id="filter1_b_1_79" x="15.0161" y="4.40974" width="28.2145" height="28.2145" filterUnits="userSpaceOnUse" color-interpolation-filters="sRGB">
<feFlood flood-opacity="0" result="BackgroundImageFix"/>
<feGaussianBlur in="BackgroundImageFix" stdDeviation="1.99406"/>
<feComposite in2="SourceAlpha" operator="in" result="effect1_backgroundBlur_1_79"/>
<feBlend mode="normal" in="SourceGraphic" in2="effect1_backgroundBlur_1_79" result="shape"/>
</filter>
<filter id="filter2_b_1_79" x="7.97136" y="26.2416" width="42.0573" height="28.236" filterUnits="userSpaceOnUse" color-interpolation-filters="sRGB">
<feFlood flood-opacity="0" result="BackgroundImageFix"/>
<feGaussianBlur in="BackgroundImageFix" stdDeviation="2.18453"/>
<feComposite in2="SourceAlpha" operator="in" result="effect1_backgroundBlur_1_79"/>
<feBlend mode="normal" in="SourceGraphic" in2="effect1_backgroundBlur_1_79" result="shape"/>
</filter>
<linearGradient id="paint0_linear_1_79" x1="12.2663" y1="18.7191" x2="55.1023" y2="50.3082" gradientUnits="userSpaceOnUse">
<stop stop-color="white"/>
<stop offset="0.734375" stop-color="white" stop-opacity="0"/>
</linearGradient>
<linearGradient id="paint1_linear_1_79" x1="19.0042" y1="12.1925" x2="28.7281" y2="28.1628" gradientUnits="userSpaceOnUse">
<stop stop-color="white"/>
<stop offset="0.99715" stop-color="white" stop-opacity="0"/>
</linearGradient>
<linearGradient id="paint2_linear_1_79" x1="13.9025" y1="32.3442" x2="46.7934" y2="47.4978" gradientUnits="userSpaceOnUse">
<stop stop-color="white"/>
<stop offset="1" stop-color="white" stop-opacity="0"/>
</linearGradient>
</defs>
</svg>
