<svg width="29" height="29" viewBox="0 0 29 29" fill="none" xmlns="http://www.w3.org/2000/svg">
<path d="M19.3334 4.19021C21.1238 5.07997 22.3542 6.92754 22.3542 9.0625C22.3542 11.1975 21.1238 13.045 19.3334 13.9348M21.75 20.2594C23.5764 21.0858 25.221 22.4327 26.5834 24.1667M2.41669 24.1667C4.7687 21.1731 7.96195 19.3333 11.4792 19.3333C14.9964 19.3333 18.1897 21.1731 20.5417 24.1667M16.9167 9.0625C16.9167 12.0655 14.4822 14.5 11.4792 14.5C8.47614 14.5 6.04169 12.0655 6.04169 9.0625C6.04169 6.05945 8.47614 3.625 11.4792 3.625C14.4822 3.625 16.9167 6.05945 16.9167 9.0625Z" stroke="white" stroke-width="2" stroke-linecap="round" stroke-linejoin="round"/>
</svg>
